<svg version="1.1" id="Layer_1" xmlns="http://www.w3.org/2000/svg" xmlns:xlink="http://www.w3.org/1999/xlink" x="0px" y="0px"
	 width="100%" viewBox="0 0 400 192" enable-background="new 0 0 400 192" xml:space="preserve">
<path fill="#000000" opacity="1.000000" stroke="none" 
	d="
M176.866669,49.403328 
	C179.773209,49.169682 182.261566,48.981007 184.752884,48.925110 
	C188.318039,48.845116 192.290909,49.861179 193.610443,44.786587 
	C193.805115,44.037922 195.171127,43.000797 195.891739,43.076881 
	C201.091949,43.625935 203.094650,39.506771 206.179016,36.676888 
	C213.054138,30.368980 222.823532,31.344551 228.620224,38.849709 
	C230.499603,41.283016 232.250671,42.983910 235.513458,42.754044 
	C237.258713,42.631096 239.019989,43.525146 239.638245,45.123199 
	C241.109482,48.926048 244.064209,49.033501 247.382782,48.948837 
	C261.914948,48.578083 263.726562,50.680473 263.520020,65.088196 
	C263.204834,87.076859 263.607788,109.075768 263.695709,131.070374 
	C263.701508,132.518875 264.017212,134.102173 262.195007,135.166473 
	C259.791748,133.763702 260.738861,131.368698 260.734222,129.454453 
	C260.679321,106.789711 260.723236,84.124748 260.734894,61.459839 
	C260.739075,53.307495 259.582062,52.128067 251.598068,52.084503 
	C250.598221,52.079048 249.581268,52.196712 248.601379,52.055313 
	C243.707703,51.349129 240.995819,52.596817 240.441528,58.321854 
	C239.760712,65.353470 236.104263,68.160492 229.053146,68.277557 
	C220.723907,68.415840 212.386444,68.415024 204.059143,68.208145 
	C196.288116,68.015083 192.825790,64.562408 192.707199,56.776665 
	C192.654358,53.308495 191.446655,51.824333 188.036118,52.088490 
	C187.374100,52.139763 186.703705,52.078732 186.037140,52.075798 
	C173.378098,52.020096 173.377762,52.020267 172.349258,64.547203 
	C172.256516,65.676704 172.307175,66.863350 171.165512,67.623047 
	C166.848068,60.808769 169.607574,51.500595 176.866669,49.403328 
z"/>
<path fill="#000000" opacity="1.000000" stroke="none" 
	d="
M201.095947,84.495872 
	C204.846024,77.171936 211.393494,73.085182 217.848053,73.767143 
	C225.240540,74.548187 230.717163,79.287094 232.467865,86.692978 
	C234.081894,93.520752 231.823807,99.108902 226.405518,103.396011 
	C221.627243,107.176743 213.349808,107.540825 208.023132,104.383286 
	C202.752243,101.258820 199.318634,94.238014 200.182602,88.257851 
	C200.348145,87.112053 200.689606,85.991669 201.095947,84.495872 
z"/>
<path fill="#000000" opacity="1.000000" stroke="none" 
	d="
M172.331970,83.081863 
	C172.323471,104.882195 172.286453,126.196426 172.317291,147.510559 
	C172.337311,161.342926 172.659454,161.649384 186.663788,161.609055 
	C208.474655,161.546265 230.285721,161.477997 252.095963,161.313156 
	C258.862671,161.262009 259.199615,160.813293 260.225342,154.081619 
	C260.654358,151.266037 260.654358,151.266037 262.287018,148.934021 
	C266.440399,156.380753 262.666656,164.259094 254.589615,164.303757 
	C229.113998,164.444672 203.636765,164.379837 178.160629,164.277267 
	C172.485397,164.254425 169.701935,161.110397 169.664886,154.873184 
	C169.568924,138.721588 169.607376,122.569160 169.603012,106.417061 
	C169.600266,96.264259 169.594452,86.111343 169.647095,75.958771 
	C169.656021,74.237434 169.151672,72.305229 171.544296,70.197578 
	C173.058044,74.673798 172.008087,78.717690 172.331970,83.081863 
z"/>
<path fill="#000000" opacity="1.000000" stroke="none" 
	d="
M200.078079,133.155151 
	C196.812241,132.730682 193.698013,134.141525 191.085556,131.764023 
	C195.323242,129.284271 238.114502,129.316406 241.763474,131.677277 
	C241.781067,132.170227 241.798645,132.663162 241.816238,133.156113 
	C228.065735,133.156113 214.315247,133.156113 200.078079,133.155151 
z"/>
<path fill="#000000" opacity="1.000000" stroke="none" 
	d="
M196.303391,115.252678 
	C194.265320,115.165939 192.557678,115.489944 190.116379,112.681847 
	C208.195435,111.609177 224.943069,112.137970 241.731949,113.351181 
	C234.543747,116.195541 227.069473,115.009483 219.728455,115.217438 
	C212.079422,115.434113 204.419250,115.257637 196.303391,115.252678 
z"/>
<path fill="#000000" opacity="1.000000" stroke="none" 
	d="
M228.981705,124.203712 
	C216.074615,124.202698 203.664703,124.202698 191.254791,124.202698 
	C191.269470,123.225395 191.284149,122.248100 191.298828,121.270798 
	C208.093582,120.998383 224.888367,120.728355 241.791382,122.523277 
	C237.929840,124.909836 233.605240,123.917686 228.981705,124.203712 
z"/>
<path fill="#000000" opacity="1.000000" stroke="none" 
	d="
M237.694458,142.662292 
	C239.378998,142.847717 240.851303,142.381195 241.922653,144.673569 
	C232.544540,144.673569 223.547684,144.673569 214.550827,144.673569 
	C214.533539,144.235138 214.516251,143.796722 214.498962,143.358292 
	C221.999207,141.898102 229.666397,143.078491 237.694458,142.662292 
z"/>
<path fill="#000000" opacity="1.000000" stroke="none" 
	d="
M263.146423,145.009491 
	C258.384888,143.434692 261.241150,140.548813 261.498322,137.196609 
	C264.780579,139.699966 263.797241,142.246109 263.146423,145.009491 
z"/>
</svg>